<?xml version="1.0" standalone="no"?>
<!DOCTYPE svg PUBLIC "-//W3C//DTD SVG 20010904//EN"
 "http://www.w3.org/TR/2001/REC-SVG-20010904/DTD/svg10.dtd">
<svg version="1.0" xmlns="http://www.w3.org/2000/svg"
 width="64.000000pt" height="64.000000pt" viewBox="0 0 64.000000 64.000000"
 preserveAspectRatio="xMidYMid meet">

<g transform="translate(0.000000,64.000000) scale(0.100000,-0.100000)"
fill="#000000" stroke="none">
<path d="M150 423 c0 -55 5 -54 14 5 4 26 2 42 -4 42 -5 0 -10 -21 -10 -47z"/>
<path d="M182 449 c-7 -12 -11 -24 -7 -27 3 -4 10 0 15 8 6 10 10 4 13 -21 3
-28 4 -26 5 14 2 51 -6 59 -26 26z"/>
<path d="M230 425 c0 -43 1 -45 28 -44 23 2 24 2 5 6 -27 5 -31 30 -5 36 16 4
16 5 0 6 -26 2 -22 29 5 34 19 4 18 4 -5 6 -27 1 -28 -1 -28 -44z"/>
<path d="M301 448 c-12 -34 2 -63 33 -66 20 -3 26 1 26 17 0 21 -17 37 -28 26
-3 -3 0 -10 7 -14 10 -7 10 -10 1 -16 -17 -11 -32 9 -28 36 2 18 9 23 26 22
13 -2 21 1 17 7 -11 18 -45 11 -54 -12z"/>
<path d="M381 429 c-7 -23 -10 -44 -7 -47 3 -3 6 0 6 6 0 16 37 15 44 0 3 -7
3 5 0 27 -10 69 -25 74 -43 14z m29 0 c0 -11 -4 -18 -10 -14 -5 3 -7 12 -3 20
7 21 13 19 13 -6z"/>
<path d="M210 210 c0 -22 5 -40 10 -40 6 0 10 7 10 17 0 15 1 15 18 0 16 -15
17 -14 18 23 l1 39 -18 -22 -18 -22 -1 23 c0 12 -4 22 -10 22 -5 0 -10 -18
-10 -40z"/>
<path d="M290 210 c0 -37 2 -40 28 -39 23 2 24 2 5 6 -26 5 -31 23 -8 23 8 0
15 5 15 10 0 6 -7 10 -15 10 -23 0 -18 18 8 23 19 4 18 4 -5 6 -26 1 -28 -2
-28 -39z"/>
<path d="M361 211 c-1 -41 0 -43 13 -25 14 18 15 18 21 2 4 -10 11 -18 16 -18
6 0 6 7 0 18 -6 11 -6 24 1 36 5 9 8 20 5 23 -3 2 -10 -5 -17 -16 -14 -27 -28
-27 -33 2 -2 12 -5 2 -6 -22z"/>
</g>
</svg>
